<svg width="26" height="24" viewBox="0 0 26 24" fill="none" xmlns="http://www.w3.org/2000/svg">
<path d="M24.2355 16.7359H7.95234L8.76991 15.0543L22.3543 15.0295C22.8137 15.0295 23.2074 14.6981 23.2894 14.2397L25.1707 3.60598C25.2199 3.32709 25.1461 3.03992 24.9656 2.82177C24.8764 2.71442 24.7652 2.62794 24.6396 2.56833C24.514 2.50873 24.377 2.47743 24.2383 2.47661L6.95702 2.41862L6.80937 1.71725C6.7164 1.26992 6.31718 0.944092 5.86328 0.944092H1.63867C1.38267 0.944092 1.13716 1.04679 0.956142 1.22959C0.775125 1.41238 0.673431 1.66031 0.673431 1.91883C0.673431 2.17735 0.775125 2.42527 0.956142 2.60807C1.13716 2.79087 1.38267 2.89357 1.63867 2.89357H5.08124L5.72656 5.99174L7.31523 13.7593L5.26992 17.1308C5.1637 17.2756 5.09972 17.4475 5.08523 17.6271C5.07073 17.8066 5.10629 17.9867 5.18788 18.147C5.35195 18.4756 5.68281 18.6827 6.04921 18.6827H7.7664C7.40032 19.1737 7.20258 19.7718 7.20312 20.3864C7.20312 21.9493 8.46093 23.2195 10.0086 23.2195C11.5562 23.2195 12.8141 21.9493 12.8141 20.3864C12.8141 19.7706 12.6117 19.1714 12.2508 18.6827H16.6559C16.2898 19.1737 16.092 19.7718 16.0926 20.3864C16.0926 21.9493 17.3504 23.2195 18.898 23.2195C20.4457 23.2195 21.7035 21.9493 21.7035 20.3864C21.7035 19.7706 21.5012 19.1714 21.1402 18.6827H24.2383C24.7687 18.6827 25.2035 18.2464 25.2035 17.7079C25.2019 17.4497 25.0993 17.2026 24.9179 17.0205C24.7366 16.8384 24.4913 16.7361 24.2355 16.7359ZM7.35898 4.34049L23.1035 4.39295L21.5613 13.1131L9.19374 13.1352L7.35898 4.34049ZM10.0086 21.259C9.53281 21.259 9.14452 20.8668 9.14452 20.3864C9.14452 19.9059 9.53281 19.5138 10.0086 19.5138C10.4844 19.5138 10.8726 19.9059 10.8726 20.3864C10.8726 20.6178 10.7816 20.8397 10.6196 21.0034C10.4575 21.167 10.2378 21.259 10.0086 21.259ZM18.898 21.259C18.4223 21.259 18.034 20.8668 18.034 20.3864C18.034 19.9059 18.4223 19.5138 18.898 19.5138C19.3738 19.5138 19.7621 19.9059 19.7621 20.3864C19.7621 20.6178 19.6711 20.8397 19.509 21.0034C19.347 21.167 19.1272 21.259 18.898 21.259Z" fill="black"/>
</svg>
