<svg width="24" height="19" viewBox="0 0 24 19" fill="none" xmlns="http://www.w3.org/2000/svg">
<path d="M21.3333 9.49224V3.60148H23.6666V10.6704H21.3333M21.3333 15.383H23.6666V13.0267H21.3333M9.66665 10.6704C12.7816 10.6704 19 12.2491 19 15.383V18.9175H0.333313V15.383C0.333313 12.2491 6.55165 10.6704 9.66665 10.6704ZM9.66665 0.0670166C10.9043 0.0670166 12.0913 0.563522 12.9665 1.44731C13.8416 2.3311 14.3333 3.52977 14.3333 4.77963C14.3333 6.02949 13.8416 7.22816 12.9665 8.11195C12.0913 8.99574 10.9043 9.49224 9.66665 9.49224C8.42897 9.49224 7.24198 8.99574 6.36682 8.11195C5.49164 7.22816 4.99998 6.02949 4.99998 4.77963C4.99998 3.52977 5.49164 2.3311 6.36682 1.44731C7.24198 0.563522 8.42897 0.0670166 9.66665 0.0670166ZM9.66665 12.9089C6.20165 12.9089 2.54998 14.629 2.54998 15.383V16.679H16.7833V15.383C16.7833 14.629 13.1316 12.9089 9.66665 12.9089ZM9.66665 2.30551C9.01687 2.30551 8.3937 2.56617 7.93424 3.03016C7.47477 3.49415 7.21665 4.12345 7.21665 4.77963C7.21665 5.43581 7.47477 6.06511 7.93424 6.5291C8.3937 6.99309 9.01687 7.25375 9.66665 7.25375C10.3164 7.25375 10.9396 6.99309 11.3991 6.5291C11.8585 6.06511 12.1166 5.43581 12.1166 4.77963C12.1166 4.12345 11.8585 3.49415 11.3991 3.03016C10.9396 2.56617 10.3164 2.30551 9.66665 2.30551Z" fill="black"/>
</svg>
